<svg version="1.1" xmlns="http://www.w3.org/2000/svg" xmlns:xlink="http://www.w3.org/1999/xlink" width="16" height="16" viewBox="0,0,256,256"><g fill="#a9a9a9" fill-rule="nonzero" stroke="none" stroke-width="1" stroke-linecap="butt" stroke-linejoin="miter" stroke-miterlimit="10" stroke-dasharray="" stroke-dashoffset="0" font-family="none" font-weight="none" font-size="none" text-anchor="none" style="mix-blend-mode: normal"><g transform="translate(0,0.00206) scale(16,16)"><path d="M2,2c0,-1.10457 0.89543,-2 2,-2h8c1.10457,0 2,0.89543 2,2v13.5c-0.0001,0.18428 -0.10154,0.35356 -0.264,0.44054c-0.16246,0.08698 -0.35959,0.07755 -0.513,-0.02454l-5.223,-2.815l-5.223,2.815c-0.15341,0.10209 -0.35054,0.11152 -0.513,0.02454c-0.16246,-0.08698 -0.2639,-0.25626 -0.264,-0.44054zM4,1c-0.55228,0 -1,0.44772 -1,1v12.566l4.723,-2.482c0.16779,-0.11166 0.38621,-0.11166 0.554,0l4.723,2.482v-12.566c0,-0.55228 -0.44772,-1 -1,-1z"></path></g></g></svg>