<?xml version="1.0" standalone="no"?>
<!DOCTYPE svg PUBLIC "-//W3C//DTD SVG 20010904//EN"
 "http://www.w3.org/TR/2001/REC-SVG-20010904/DTD/svg10.dtd">
<svg version="1.0" xmlns="http://www.w3.org/2000/svg"
 width="480.000000pt" height="260.000000pt" viewBox="0 0 480.000000 260.000000"
 preserveAspectRatio="xMidYMid meet">

<g transform="translate(0.000000,260.000000) scale(0.100000,-0.100000)"
fill="#000000" stroke="none">
<path d="M845 2345 c-296 -55 -561 -286 -582 -507 -14 -153 70 -273 236 -338
71 -27 130 -38 268 -50 139 -11 227 -32 319 -76 251 -118 241 -384 -18 -515
-105 -53 -172 -70 -304 -76 -217 -10 -318 28 -412 154 -68 92 -115 113 -182
78 -61 -31 -76 -95 -44 -188 39 -116 219 -223 429 -257 89 -14 276 -14 357 0
206 36 404 146 503 281 62 85 86 155 92 270 9 158 -34 266 -144 370 -114 106
-230 148 -463 169 -318 27 -407 83 -365 226 39 135 229 243 427 244 37 0 116
-10 175 -21 59 -12 137 -22 171 -23 58 -1 66 1 88 27 31 36 33 98 4 127 -46
46 -151 83 -300 105 -113 18 -161 18 -255 0z"/>
<path d="M2098 1679 c-72 -10 -105 -27 -151 -78 -42 -46 -64 -110 -79 -232
l-11 -87 -68 -4 c-77 -4 -109 -24 -109 -69 0 -46 23 -59 102 -59 l70 0 -3
-305 c-4 -337 -7 -325 58 -325 24 0 37 7 50 27 16 24 18 60 21 319 4 337 -10
304 124 304 89 0 124 10 133 40 21 68 -24 94 -156 89 l-91 -4 6 60 c12 116 69
186 163 199 72 11 83 16 93 42 14 35 -4 72 -37 80 -52 11 -58 11 -115 3z"/>
<path d="M4461 1671 c-19 -13 -29 -76 -37 -253 -4 -87 -9 -158 -11 -158 -3 0
-23 11 -46 24 -23 13 -59 27 -79 30 -48 9 -160 -10 -207 -34 -45 -22 -112 -94
-139 -147 -49 -96 -55 -263 -13 -358 74 -168 274 -230 453 -140 46 23 47 23
53 4 10 -30 42 -43 76 -29 38 16 42 33 29 131 -14 118 -12 384 5 594 19 238
19 309 -1 329 -17 17 -61 21 -83 7z m-141 -501 c21 -11 48 -33 60 -50 20 -28
22 -43 22 -167 -1 -134 -1 -136 -28 -164 -54 -57 -125 -78 -202 -63 -41 8
-108 66 -132 115 -39 75 -18 228 37 284 63 63 169 83 243 45z"/>
<path d="M2653 1310 c-65 -14 -108 -38 -152 -85 -74 -80 -111 -185 -111 -315
0 -95 20 -156 71 -213 98 -113 299 -137 473 -58 99 45 145 122 98 164 -29 26
-62 20 -99 -18 -64 -65 -227 -89 -316 -46 -41 20 -105 76 -96 85 2 2 85 42
183 90 193 93 238 121 261 166 43 84 -12 192 -113 220 -56 15 -152 20 -199 10z
m181 -143 l40 -19 -25 -19 c-27 -22 -282 -153 -316 -163 -29 -9 -30 6 -3 78
51 136 177 187 304 123z"/>
<path d="M3403 1310 c-65 -14 -108 -38 -152 -85 -74 -80 -111 -185 -111 -315
0 -95 20 -156 71 -213 98 -113 299 -137 473 -58 99 45 145 122 98 164 -29 26
-62 20 -99 -18 -64 -65 -227 -89 -316 -46 -41 20 -105 76 -96 85 2 2 85 42
183 90 193 93 238 121 261 166 43 84 -12 192 -113 220 -56 15 -152 20 -199 10z
m181 -143 l40 -19 -25 -19 c-27 -22 -282 -153 -316 -163 -29 -9 -30 6 -3 78
51 136 177 187 304 123z"/>
</g>
</svg>
