<?xml version="1.0" standalone="no"?>
<!DOCTYPE svg PUBLIC "-//W3C//DTD SVG 20010904//EN"
 "http://www.w3.org/TR/2001/REC-SVG-20010904/DTD/svg10.dtd">
<svg version="1.0" xmlns="http://www.w3.org/2000/svg"
 width="2362.000000pt" height="654.000000pt" viewBox="0 0 2362.000000 654.000000"
 preserveAspectRatio="xMidYMid meet">

<g transform="translate(0.000000,654.000000) scale(0.100000,-0.100000)"
fill="#000000" stroke="none">
<path d="M8412 5399 c-992 -87 -1707 -901 -1658 -1887 30 -598 294 -1085 755
-1392 330 -221 718 -323 1166 -307 484 18 909 168 1303 461 l102 77 0 760 0
759 -755 0 -755 0 0 -330 0 -330 385 0 385 0 0 -248 0 -247 -67 -42 c-121 -74
-280 -128 -453 -154 -121 -17 -383 -6 -482 20 -419 114 -703 443 -769 891 -18
127 -7 352 24 471 110 423 433 726 839 790 96 15 307 5 423 -20 190 -40 384
-135 545 -265 38 -31 71 -56 74 -56 7 0 489 580 485 583 -2 2 -26 21 -54 44
-213 174 -490 311 -750 371 -198 46 -536 70 -743 51z"/>
<path d="M13402 5400 c-860 -71 -1514 -680 -1637 -1521 -29 -204 -16 -514 30
-711 47 -203 163 -460 279 -623 338 -470 869 -735 1473 -735 488 0 875 132
1208 412 50 42 119 106 155 142 l65 66 -247 247 -246 246 -51 -45 c-207 -187
-403 -292 -631 -340 -129 -27 -375 -21 -495 11 -505 138 -826 675 -741 1241
37 244 143 460 305 621 180 179 394 273 652 286 299 15 569 -87 861 -324 79
-65 81 -66 97 -45 9 11 119 138 245 282 l228 261 -57 52 c-251 225 -483 351
-777 422 -202 49 -505 72 -716 55z"/>
<path d="M16798 5399 c-530 -41 -1017 -301 -1327 -707 -179 -236 -286 -487
-343 -802 -20 -116 -17 -479 6 -605 98 -536 411 -976 881 -1238 456 -255 1049
-308 1570 -140 617 198 1085 719 1205 1342 46 238 46 505 -1 735 -110 544
-462 992 -969 1235 -220 105 -435 161 -690 181 -149 11 -176 11 -332 -1z m412
-727 c303 -80 535 -260 675 -525 85 -160 123 -302 132 -487 24 -537 -281 -976
-772 -1110 -113 -31 -345 -39 -469 -16 -159 30 -317 99 -436 191 -87 67 -210
204 -264 294 -58 96 -110 230 -138 355 -27 120 -29 334 -5 459 90 453 403 769
842 852 110 20 333 14 435 -13z"/>
<path d="M1845 5394 c-397 -32 -716 -184 -908 -437 -67 -87 -139 -233 -169
-342 -19 -69 -22 -107 -22 -275 -1 -221 14 -308 77 -443 137 -293 406 -449
1084 -627 373 -97 523 -159 613 -249 63 -63 80 -106 80 -198 0 -47 -7 -73 -31
-121 -47 -95 -138 -155 -287 -188 -91 -20 -359 -15 -466 10 -236 54 -441 152
-668 322 l-97 72 -223 -265 c-123 -146 -224 -269 -226 -273 -5 -12 118 -111
229 -184 279 -186 560 -294 914 -352 153 -26 519 -26 655 -1 208 38 399 111
540 207 194 131 332 329 391 557 42 168 44 404 3 572 -35 146 -132 302 -252
405 -180 155 -413 257 -860 376 -489 131 -635 197 -693 317 -32 66 -33 189 -2
248 71 135 243 204 478 192 232 -12 479 -102 754 -275 57 -35 106 -60 110 -55
3 5 26 38 50 73 25 36 112 161 194 279 l150 215 -29 23 c-65 52 -205 141 -309
194 -197 102 -420 172 -641 203 -115 16 -354 26 -439 20z"/>
<path d="M4877 5390 c-655 -63 -1068 -472 -1067 -1058 1 -181 28 -313 95 -447
87 -177 213 -291 440 -401 154 -75 291 -121 598 -204 499 -133 641 -199 702
-325 25 -50 27 -63 23 -140 -4 -71 -9 -91 -34 -132 -53 -85 -152 -143 -292
-172 -78 -16 -294 -13 -403 5 -245 42 -495 157 -730 338 -64 49 -87 62 -95 53
-25 -27 -431 -513 -437 -524 -9 -14 111 -112 244 -199 260 -171 559 -285 894
-340 155 -26 518 -26 660 0 283 52 489 147 652 300 185 175 278 368 305 639
21 206 -10 404 -87 557 -147 291 -437 460 -1084 630 -555 146 -683 227 -684
434 0 43 6 86 16 108 25 58 91 122 157 152 270 121 667 40 1084 -222 55 -35
102 -59 106 -55 4 4 45 62 90 128 46 66 132 191 193 278 93 134 107 160 96
173 -29 35 -243 167 -369 228 -268 128 -522 188 -845 200 -77 2 -180 1 -228
-4z"/>
<path d="M19190 3610 l0 -1740 375 0 375 0 2 1122 3 1122 485 -732 c267 -402
490 -732 495 -732 6 0 231 334 500 742 l490 741 3 -1132 2 -1131 380 0 380 0
0 1740 0 1740 -413 0 -413 0 -455 -727 c-250 -399 -457 -730 -460 -735 -3 -4
-212 323 -465 727 l-459 735 -412 0 -413 0 0 -1740z"/>
<path d="M11005 2686 c-170 -42 -297 -180 -326 -354 -22 -131 24 -273 118
-365 101 -100 185 -131 332 -125 85 3 106 8 162 35 85 43 134 85 179 155 53
81 74 167 67 267 -18 264 -275 451 -532 387z"/>
</g>
</svg>
